<svg id="visual" viewBox="0 0 900 300" width="900" height="300" xmlns="http://www.w3.org/2000/svg" xmlns:xlink="http://www.w3.org/1999/xlink" version="1.1"><rect x="0" y="0" width="900" height="300" fill="#c8e0f3"></rect><path d="M0 221L21.5 216.2C43 211.3 86 201.7 128.8 194.5C171.7 187.3 214.3 182.7 257.2 187.5C300 192.3 343 206.7 385.8 199.5C428.7 192.3 471.3 163.7 514.2 149.3C557 135 600 135 642.8 139.2C685.7 143.3 728.3 151.7 771.2 150.5C814 149.3 857 138.7 878.5 133.3L900 128L900 301L878.5 301C857 301 814 301 771.2 301C728.3 301 685.7 301 642.8 301C600 301 557 301 514.2 301C471.3 301 428.7 301 385.8 301C343 301 300 301 257.2 301C214.3 301 171.7 301 128.8 301C86 301 43 301 21.5 301L0 301Z" fill="#0116e6"></path><path d="M0 232L21.5 218.7C43 205.3 86 178.7 128.8 171.7C171.7 164.7 214.3 177.3 257.2 183.5C300 189.7 343 189.3 385.8 196.5C428.7 203.7 471.3 218.3 514.2 212.5C557 206.7 600 180.3 642.8 181.7C685.7 183 728.3 212 771.2 216.8C814 221.7 857 202.3 878.5 192.7L900 183L900 301L878.5 301C857 301 814 301 771.2 301C728.3 301 685.7 301 642.8 301C600 301 557 301 514.2 301C471.3 301 428.7 301 385.8 301C343 301 300 301 257.2 301C214.3 301 171.7 301 128.8 301C86 301 43 301 21.5 301L0 301Z" fill="#003ced"></path><path d="M0 230L21.5 222.2C43 214.3 86 198.7 128.8 202.2C171.7 205.7 214.3 228.3 257.2 232.3C300 236.3 343 221.7 385.8 214C428.7 206.3 471.3 205.7 514.2 201.7C557 197.7 600 190.3 642.8 187C685.7 183.7 728.3 184.3 771.2 195.3C814 206.3 857 227.7 878.5 238.3L900 249L900 301L878.5 301C857 301 814 301 771.2 301C728.3 301 685.7 301 642.8 301C600 301 557 301 514.2 301C471.3 301 428.7 301 385.8 301C343 301 300 301 257.2 301C214.3 301 171.7 301 128.8 301C86 301 43 301 21.5 301L0 301Z" fill="#0056f1"></path><path d="M0 264L21.5 266.5C43 269 86 274 128.8 266.8C171.7 259.7 214.3 240.3 257.2 236.8C300 233.3 343 245.7 385.8 253.7C428.7 261.7 471.3 265.3 514.2 268.3C557 271.3 600 273.7 642.8 264.5C685.7 255.3 728.3 234.7 771.2 233.8C814 233 857 252 878.5 261.5L900 271L900 301L878.5 301C857 301 814 301 771.2 301C728.3 301 685.7 301 642.8 301C600 301 557 301 514.2 301C471.3 301 428.7 301 385.8 301C343 301 300 301 257.2 301C214.3 301 171.7 301 128.8 301C86 301 43 301 21.5 301L0 301Z" fill="#006bf1"></path><path d="M0 285L21.5 284.7C43 284.3 86 283.7 128.8 282.5C171.7 281.3 214.3 279.7 257.2 276C300 272.3 343 266.7 385.8 263.8C428.7 261 471.3 261 514.2 258.8C557 256.7 600 252.3 642.8 256.8C685.7 261.3 728.3 274.7 771.2 280.3C814 286 857 284 878.5 283L900 282L900 301L878.5 301C857 301 814 301 771.2 301C728.3 301 685.7 301 642.8 301C600 301 557 301 514.2 301C471.3 301 428.7 301 385.8 301C343 301 300 301 257.2 301C214.3 301 171.7 301 128.8 301C86 301 43 301 21.5 301L0 301Z" fill="#227eee"></path></svg>