<svg id="visual" viewBox="0 0 900 300" width="900" height="300" xmlns="http://www.w3.org/2000/svg" xmlns:xlink="http://www.w3.org/1999/xlink" version="1.1"><rect x="0" y="0" width="900" height="300" fill="#c8e0f3"></rect><path d="M0 149L39 149L39 163L78 163L78 201L117 201L117 117L157 117L157 159L196 159L196 197L235 197L235 193L274 193L274 153L313 153L313 196L352 196L352 188L391 188L391 133L430 133L430 149L470 149L470 104L509 104L509 109L548 109L548 110L587 110L587 172L626 172L626 158L665 158L665 158L704 158L704 150L743 150L743 134L783 134L783 95L822 95L822 142L861 142L861 96L900 96L900 161L900 301L900 301L861 301L861 301L822 301L822 301L783 301L783 301L743 301L743 301L704 301L704 301L665 301L665 301L626 301L626 301L587 301L587 301L548 301L548 301L509 301L509 301L470 301L470 301L430 301L430 301L391 301L391 301L352 301L352 301L313 301L313 301L274 301L274 301L235 301L235 301L196 301L196 301L157 301L157 301L117 301L117 301L78 301L78 301L39 301L39 301L0 301Z" fill="#003ced"></path><path d="M0 151L39 151L39 156L78 156L78 245L117 245L117 142L157 142L157 165L196 165L196 148L235 148L235 244L274 244L274 251L313 251L313 143L352 143L352 192L391 192L391 231L430 231L430 248L470 248L470 169L509 169L509 235L548 235L548 202L587 202L587 185L626 185L626 240L665 240L665 243L704 243L704 161L743 161L743 172L783 172L783 146L822 146L822 169L861 169L861 149L900 149L900 192L900 301L900 301L861 301L861 301L822 301L822 301L783 301L783 301L743 301L743 301L704 301L704 301L665 301L665 301L626 301L626 301L587 301L587 301L548 301L548 301L509 301L509 301L470 301L470 301L430 301L430 301L391 301L391 301L352 301L352 301L313 301L313 301L274 301L274 301L235 301L235 301L196 301L196 301L157 301L157 301L117 301L117 301L78 301L78 301L39 301L39 301L0 301Z" fill="#0056f1"></path><path d="M0 282L39 282L39 257L78 257L78 220L117 220L117 205L157 205L157 197L196 197L196 270L235 270L235 199L274 199L274 227L313 227L313 271L352 271L352 198L391 198L391 228L430 228L430 198L470 198L470 281L509 281L509 197L548 197L548 273L587 273L587 230L626 230L626 269L665 269L665 275L704 275L704 287L743 287L743 261L783 261L783 271L822 271L822 264L861 264L861 212L900 212L900 233L900 301L900 301L861 301L861 301L822 301L822 301L783 301L783 301L743 301L743 301L704 301L704 301L665 301L665 301L626 301L626 301L587 301L587 301L548 301L548 301L509 301L509 301L470 301L470 301L430 301L430 301L391 301L391 301L352 301L352 301L313 301L313 301L274 301L274 301L235 301L235 301L196 301L196 301L157 301L157 301L117 301L117 301L78 301L78 301L39 301L39 301L0 301Z" fill="#006bf1"></path></svg>